<?xml version="1.0" encoding="utf-8"?>
<!-- Generator: Adobe Illustrator 18.1.1, SVG Export Plug-In . SVG Version: 6.00 Build 0)  -->
<svg version="1.1" id="Layer_1" xmlns="http://www.w3.org/2000/svg" xmlns:xlink="http://www.w3.org/1999/xlink" x="0px" y="0px"
	 viewBox="7.4 262.2 599.6 260.2" style="enable-background:new 7.4 262.2 599.6 260.2;" xml:space="preserve">
<g>
	<path d="M565.8,513.2c-1.4-1.6-2.7-3-3.7-4.6l-0.2-0.2l5-7.5l3.2-4.8c0.7-1.1,2.3-2,3.6-2l2.1-0.2l11.2-0.7c0.9,0,1.8-0.9,1.8-2
		v-0.4l0,0c0-0.9-0.7-1.6-1.6-1.6l0,0l-10.3,0.2l0,0c-0.2,0-0.2,0-0.2,0l-0.2-0.7c2-0.7,3.7-2.3,4.5-4.3v-0.2l4.5-3l5-3.6
		c0.2,0,0.2-0.2,0.4-0.4l0.4-0.4l0.2,0.5c0.2,0.4,0.4,0.5,0.5,0.9l0,0l0.2,0.4l0,0l0.2,0.2l0,0c1.8,3.6,3,7.7,3,12.1l0,0v0.4v0.4
		l0,0c0,3.6-0.9,7.5-2.9,11.6l0,0l-0.2,0.4l-0.2,0.4l0,0c-1.4,2.9-3.6,5.9-6.2,8.9l-0.2,0.2l-0.2-0.2c-2.9-1.2-5.7-1.8-8.6-1.8
		c-0.4,0-0.5,0-0.9,0c-3.4,0.2-6.6,1.1-9.3,2H565.8L565.8,513.2z M566.2,512.5c2.5-0.9,5.7-1.8,8.9-2v-10.9c-2.5,0-5,0.4-7.1,0.9
		l-5.2,7.7C563.9,509.6,565,511,566.2,512.5 M585.1,512.3c2.7-3,4.6-5.9,6.1-8.6c-5.3-2.9-10.5-3.9-15.1-3.9v10.7c0.2,0,0.4,0,0.5,0
		C579.4,510.5,582.2,511,585.1,512.3 M591.5,503c2-3.9,2.7-7.7,2.9-11.2h-4.5v-0.7h4.5c0-4.3-1.2-8.2-2.9-11.8c-2,1.1-3.7,2-5.7,2.5
		l-4.1,2.9c-0.7,1.6-1.8,3-3.4,3.9l8.9-0.2l0,0c1.2,0,2.3,1.1,2.3,2.3l0,0v0.4c0,1.4-1.1,2.5-2.5,2.5l-11.2,0.7v4.5h0.2
		C580.8,499.1,586.2,500.2,591.5,503 M568.5,499.8c2.1-0.4,4.3-0.7,6.6-0.7v-4.5l-1.4,0.2c-1.1,0-2.5,0.9-3,1.8l0,0L568.5,499.8z
		 M590.8,478.4l-2.7,2c1.1-0.4,2.1-0.9,3-1.6C591,478.6,591,478.4,590.8,478.4C590.8,478.2,590.8,478.2,590.8,478.4l-0.2-0.4
		L590.8,478.4z M559.1,487.7l-2.5-0.4V487c0.5-3,1.6-5.7,2.9-8.4l0.2-0.4l0.4,0.2c2,0.9,4.1,1.8,6.4,2.5h0.2v0.4c0,0.2,0,0.2,0,0.2
		c0,0.4,0,0.7,0,0.9h-0.7c0-0.4,0-0.7,0-1.1c-2.1-0.7-4.1-1.4-5.9-2.3c-1.1,2.3-2,4.8-2.5,7.5l1.8,0.2c0.2,0,0.2,0,0.4,0
		c1.1,0,2.5-0.4,3.2-0.9l3.2-2l0,0h0.2c0-0.2,0-0.4-0.2-0.4l0.7-0.2c0,0.2,0.2,0.5,0.2,0.7l0.2,0.4l-0.4,0.2l-0.5,0.2l-3,2.1
		c-0.9,0.5-2.3,0.9-3.6,0.9C559.4,487.7,559.2,487.7,559.1,487.7 M580.8,478.8c-0.5-1.2-1.4-2.3-2.5-3l0,0l0.2-0.4l-0.2,0.4
		c-0.9-0.5-1.8-1.1-2.9-1.2h-0.4v-3.7h0.4c2.7,0,5.7-0.5,8.7-2.1l0.2-0.2l0.2,0.2c1.4,1.4,2.9,3.2,4.1,5l0.4,0.5h-0.5
		c-0.4,0-0.7,0.2-0.9,0.4l-5.9,4.1l-0.9,0.4L580.8,478.8z M581.3,478.1L581.3,478.1l5.9-4.1c0.2-0.2,0.5-0.2,0.7-0.4
		c-1.1-1.6-2.3-3-3.6-4.3c-3,1.4-5.9,2-8.4,2.1v2.5c1.1,0.2,2,0.7,2.9,1.2C579.7,475.9,580.6,477,581.3,478.1"/>
	<path d="M557.3,515.5l-0.4-0.4l0.5-0.2c0,0,0.2,0,0.2-0.2l4.8-7.1l0.4,0.4c1.1,1.4,2.1,2.9,3.6,4.5c2.5-0.9,5.7-1.8,8.9-2l0,0h0.4
		c0,0,0,0,0.2,0h0.2c0.2,0,0.4,0,0.5,0c2.9,0,5.7,0.5,8.6,1.8c2.7-3,4.8-6.1,6.2-8.9v-0.2c2-4.1,2.9-8,2.9-11.8v-0.2
		c0-4.5-1.2-8.7-3-12.3l-0.2-0.2c-0.2-0.4-0.4-0.7-0.5-0.9l-0.2-0.2l0.2-0.2c0.2-0.4,0.4-0.7,0.4-1.1c0-0.4-0.2-0.7-0.4-1.1
		l-0.4-0.5c-0.4-0.4-0.9-0.7-1.4-0.7h-0.2h-0.2l-0.2-0.2c-1.2-1.8-2.5-3.4-3.9-4.8c-3,1.4-5.9,2-8.4,2.1l0,0v3h-0.4
		c-0.5-0.2-1.1-0.2-1.4-0.2c-4.1,0-7.3,3.2-7.5,7.1v0.5l-0.4-0.2c-2.3-0.7-4.3-1.6-6.1-2.5c-1.2,2.5-2.1,5-2.5,7.8v0.4l-11.4-1.2
		v-0.4c0.9-4.5,2.7-8.7,5.2-12.3l0,0l0.2-0.2l0.2-0.4l0,0c1.2-1.6,2.7-3.2,4.3-4.5c1.2-1.1,2.7-2.1,4.1-3l0,0l0.4-0.2c0,0,0,0,0.2,0
		h0.2c4.3-2.5,9.3-4.1,14.6-4.1h0.2h0.2c0.2,0,0.2,0,0.4,0v0.4v0.4l0,0v9.1c2.5,0,5.2-0.5,7.8-2c-2-2.1-3.9-3.7-5.3-5
		c-1.6-1.2-2.5-1.8-2.5-1.8l0.4-0.4c-0.2,0-0.2,0-0.4,0v-0.4v-0.4c16.8,0,30.5,13.7,30.5,30.5s-13.7,30.5-30.5,30.5
		C568.9,521.9,562.5,519.4,557.3,515.5 M576.4,521.2c8-0.2,15.3-3.4,20.7-8.7c5.3-5.3,8.6-12.7,8.7-20.7h-10.7
		c0,3.6-0.9,7.5-2.9,11.6c2.5,1.4,5.2,3.2,7.7,5.3l-0.5,0.5c-2.5-2.1-5-3.9-7.5-5.3c-1.4,2.9-3.4,5.7-6.1,8.6l0,0
		c2,0.9,3.7,2.1,5.5,3.9l-0.5,0.5c-1.8-1.8-3.7-3-5.5-3.9C582.8,515.9,579.9,518.5,576.4,521.2 M575.3,521.2v-0.4l-0.2,0.4
		c-3.6-2.7-6.6-5.2-8.9-7.8c-2,0.7-3.6,1.6-4.6,2.1c-0.7,0.4-1.2,0.7-1.6,0.9C564.2,519.2,569.6,521,575.3,521.2 M576,520.7
		c3.4-2.7,6.2-5.2,8.7-7.8c-2.7-1.2-5.5-1.6-8-1.6c-0.2,0-0.4,0-0.5,0v9.4H576z M575.3,520.5v-9.1c-3,0.2-6.1,0.9-8.4,1.8
		C569,515.5,571.9,518,575.3,520.5 M559.2,516c0.2-0.2,2.7-1.8,6.4-3.2l0,0c-1.2-1.2-2.1-2.5-3.2-3.7l-4.3,6.2
		C558.5,515.5,558.7,515.7,559.2,516 M594.9,491.1h10.7c0-6.8-2.3-12.8-6.2-17.8c-2.5,2.3-5,4.3-7.5,5.7
		C593.8,482.7,594.9,486.8,594.9,491.1 M556.8,486.8c0.5-2.7,1.4-5.3,2.5-7.7l0,0c-3.9-2-6.6-4.1-7.7-5c-2.5,3.4-4.1,7.3-5,11.6
		L556.8,486.8z M565.8,481.1c0.4-4.1,3.9-7.5,8.2-7.5c0.4,0,0.9,0,1.2,0.2v-2.3c-0.2,0-0.2,0-0.4,0c-3.2,0-6.1-0.9-8.4-1.8
		c-2.3,2.5-4.5,5.7-6.2,9.1C561.9,479.7,563.9,480.4,565.8,481.1 M559.6,478.4c1.8-3.6,4.1-6.6,6.2-9.1l0,0l0,0
		c-2.9-1.2-4.8-2.9-5.3-3.4c-1.4,0.9-2.9,2-4.3,3.2L556,469l0.2,0.2c-1.6,1.4-2.9,2.9-4.1,4.5C553,474.3,555.7,476.5,559.6,478.4
		 M591.7,478.4c2.5-1.4,5-3.4,7.5-5.7l0.2,0.4c-0.7-0.9-1.6-1.8-2.3-2.7c-2-2-4.1-3.6-6.6-5c-1.8,1.6-3.6,2.7-5.3,3.7l0,0
		c1.2,1.4,2.5,2.9,3.7,4.6c0.7,0,1.6,0.4,2,0.9l0.4,0.5c0.4,0.4,0.5,0.9,0.5,1.4c0,0.4-0.2,0.9-0.4,1.2
		C591.5,477.9,591.5,478.2,591.7,478.4 M575.3,470.8v-9.1l0,0l0,0c0,0-1.1,0.7-2.5,2c-1.4,1.2-3.4,3-5.5,5.3
		C569.4,470,572.1,470.8,575.3,470.8 M566.4,468.8c3.2-3.6,6.2-6.1,7.7-7.1c-4.6,0.4-9.1,1.6-12.8,3.9
		C561.9,466.3,563.9,467.6,566.4,468.8 M584.6,468.6c1.8-0.9,3.4-2,5.2-3.6c-3.9-2.1-8.4-3.2-13.2-3.4
		C577.4,462.2,580.8,464.7,584.6,468.6 M553,511.4c-4.6-5.3-7.5-12.3-7.5-20v-0.2v-0.4l11.2,2.5l0,0h0.2l0,0l0,0l2.1,0.7l-0.2,0.4
		l-0.2,0.4l0.2-0.4l0.2-0.4l0,0l0,0c1.1,0.7,1.4,1.6,1.4,2.5c0,0.5-0.2,1.1-0.2,1.1c-0.2,0.7-0.9,2-1.6,3.4l0,0v0.2l-0.4,0.7
		c-0.5,0.9-0.9,1.8-1.4,2.7l0,0l0,0c-0.2,0.4-0.4,0.5-0.5,0.9l-3.2,6.1L553,511.4z M553.2,510.5l2.7-5c-2.1,1.2-3.6,2.5-4.1,2.9
		C552.1,509.3,552.7,510,553.2,510.5 M551.2,508c0.7-0.5,2.7-2.1,5.2-3.6c0.5-1.1,1.2-2.1,1.8-3.2c-0.9-2.5-1.4-4.8-1.8-7.3
		l-10.2-2.3C546.2,497.7,548,503.4,551.2,508 M558.5,500.3c0.7-1.2,1.1-2.3,1.2-2.9l0,0l0,0c0,0,0,0,0-0.2s0.2-0.4,0.2-0.7
		c0-0.5-0.2-1.2-1.1-1.8l-1.8-0.7C557.3,496.2,557.8,498.4,558.5,500.3"/>
	<path d="M566.4,484.5l0.7-0.2c1.1,3,3.7,5,7.1,5c0.5,0,1.1,0,1.4-0.2l0.2,0.7c-0.5,0.2-1.1,0.2-1.6,0.2
		C570.5,490,567.4,487.7,566.4,484.5"/>
	<path d="M557.1,516.2c-0.4,0.2-0.9,0.4-1.2,0.4s-0.7,0-1.1,0h-0.2l-1.2-0.9l0,0c-0.7-0.7-1.1-1.6-1.1-2.5c0-0.4,0-0.7,0.2-1.1
		c-4.8-5.3-7.7-12.3-7.7-20l-0.4-0.2l0,0c-1.1-0.5-1.8-1.6-1.6-2.7c0-0.2,0-0.5,0-0.7l0.2-0.9v-0.2c0.4-0.5,0.7-1.1,1.2-1.4
		c0.4-0.4,0.9-0.5,1.4-0.5c3-13.9,15.3-24.4,30.3-24.4c17.1,0,31,13.7,31,30.7c0,16.9-13.9,30.7-31,30.7
		C568.7,522.3,562.3,520,557.1,516.2 M575.6,520.8c16.4,0,29.6-13,29.6-29.2s-13.2-29.2-29.6-29.2c-14.4,0-26.4,10.2-29,23.7h-0.2
		v0.7l0,0c-0.2,0-0.2,0-0.4,0l0,0l0,0h-0.2c-0.5,0-0.7,0.2-1.1,0.4c-0.2,0.2-0.5,0.5-0.7,0.9l-0.2,0.5c0,0.2,0,0.4,0,0.5
		c0,0.7,0.2,1.1,0.9,1.4l0.7,0.2h0.2l0.5,0.2l-0.2,0.5h0.2c0,0.2,0,0.4,0,0.4c0,7.5,2.9,14.4,7.7,19.6l-0.2,0.2l0.5,0.2l-0.4,0.5
		c0,0.4-0.2,0.5-0.2,0.9c0,0.5,0.2,1.1,0.7,1.4l0.9,0.7c0.4,0,0.5,0,0.7,0c0.4,0,0.5,0,1.1-0.4l0,0c0.2,0,0.2-0.2,0.4-0.2l0.4,0.5
		l0.2-0.4C562.6,518.5,568.9,520.8,575.6,520.8 M565.7,482c0-4.6,3.7-8.4,8.4-8.4c4.6,0,8.4,3.7,8.4,8.4s-3.7,8.4-8.4,8.4v-0.7v-0.7
		c3.7,0,7-3,7-7c0-3.9-3-7-7-7s-7,3-7,7c0,3.7,3,7,7,7v0.7v0.7C569.4,490.4,565.7,486.6,565.7,482"/>
	<path d="M557.8,515.9L557.8,515.9L557.8,515.9z M557.3,514.8L557.3,514.8L557.3,514.8L557.3,514.8c0-0.2,0-0.2,0-0.2l4.5-6.6l5.3-8
		l1.1,0.7l-5.3,8l-4.6,7H558c-0.2,0-0.2,0.2-0.2,0.2L557.3,514.8z M552.7,510.9l2.9-5.5c0.2-0.4,0.4-0.7,0.5-0.9l1.2,0.7
		c-0.2,0.4-0.4,0.7-0.5,0.9l-2.9,5.5L552.7,510.9z M556,504.4c0.7-1.2,1.2-2.3,1.8-3.4c0.9-1.6,1.4-2.9,1.6-3.4l0,0l0,0l0,0
		c0,0,0,0,0-0.2s0-0.4,0-0.5c0-0.5-0.2-0.9-0.9-1.4l-2.1-0.7h-0.2l0.2-0.7l-0.2,0.7l-10.9-2.5l0.4-1.4l10.9,2.5h0.2l2.3,0.9l0,0
		c1.2,0.7,1.6,2,1.6,2.7s-0.2,1.1-0.2,1.2c-0.2,0.7-0.9,2-1.8,3.6l0,0c-0.5,1.1-1.2,2.1-1.8,3.4L556,504.4z M567.3,500l2.7-4.1
		c0.9-1.2,2.3-2.1,3.7-2.1l1.8-0.2l11.6-0.7c0.7,0,1.4-0.7,1.4-1.6v-0.4l0,0c0-0.7-0.5-1.2-1.2-1.2l0,0l-10.3,0.2l0,0h-0.2
		c-0.4,0.2-0.7,0.2-1.1,0.4l-0.4-1.4c0.4,0,0.7-0.2,1.1-0.4h0.2h0.2h0.2l0,0l10.3-0.2l0,0c1.4,0,2.7,1.2,2.7,2.7l0,0v0.4
		c0,1.6-1.2,2.9-2.9,2.9l-11.6,0.7v-0.7v0.7l-1.8,0.2c-0.9,0-2.3,0.9-2.7,1.6l-2.7,4.1L567.3,500z M575.6,495L575.6,495L575.6,495
		L575.6,495z M566.2,485.2l-2.9,1.8c-1.1,0.7-2.5,1.1-3.7,1.1c-0.2,0-0.4,0-0.5,0l-2.1-0.2l0.2-1.4l2.1,0.2c0.2,0,0.2,0,0.4,0
		c0.9,0,2.3-0.4,3-0.9l3.2-2l1.2-0.5l0.2,0.7c0.9,2.9,3.6,4.8,6.8,4.8c0.5,0,0.9,0,1.4-0.2l0.4,1.4c-0.5,0.2-1.1,0.2-1.8,0.2
		C570.5,490.4,567.6,488.2,566.2,485.2 M546.2,486.6l0.2-1.4l10.7,1.2l-0.2,1.4L546.2,486.6z M580.8,484l4.3-3l0.9,1.1l-4.3,3
		L580.8,484z M585.1,481.1l5-3.6c0.2,0,0.2-0.2,0.2-0.2l0.5,0.4l-0.5-0.5c0.2-0.2,0.4-0.5,0.4-0.7c0-0.4-0.2-0.5-0.4-0.7l-0.4-0.4
		c-0.4-0.4-0.7-0.5-1.2-0.5c0,0,0,0-0.2,0v-0.7v0.7c-0.4,0-0.5,0.2-0.7,0.2l-5.9,4.1l0,0l-0.5,0.2l-0.5-1.2l0.4-0.2l5.7-3.9
		c0.5-0.4,0.9-0.5,1.4-0.5h0.2c0.9,0,1.8,0.4,2.3,1.1l0.4,0.4c0.4,0.5,0.5,1.1,0.5,1.6c0,0.5-0.2,1.2-0.5,1.6l0,0
		c-0.2,0.2-0.4,0.4-0.5,0.5l-5,3.6L585.1,481.1z"/>
</g>
<g>
	<path style="fill:#0090BA;" d="M256.6,265.6h2.7c1.6,0,2.9,0.7,3.9,2.1l19.2,29.9v-29.6c0-1.8,1.2-2.7,3.7-2.7h2.1
		c2.3,0,3.6,0.9,3.9,2.7V313c0,1.8-1.2,2.7-3.6,2.7h-1.8c-1.8,0-3.2-0.7-4.1-2.1L263,282.9v30.3c-0.4,1.8-1.6,2.5-3.9,2.5H257
		c-2.5,0-3.7-0.9-3.7-2.7v-44.9C253.2,266.5,254.3,265.6,256.6,265.6z"/>
	<path style="fill:#0090BA;" d="M311.5,266.3v3.4c0,1.8-1.2,2.7-3.7,2.7h-2.3c-2.5,0-3.7-0.9-3.7-2.7v-3.4c0-1.8,1.2-2.9,3.7-2.9
		h2.3C310.3,263.5,311.5,264.4,311.5,266.3z M311.3,313c-0.2,1.8-1.4,2.7-3.7,2.7h-2.1c-2.5,0-3.7-0.9-3.7-2.7v-33.7
		c0.2-1.8,1.4-2.7,3.7-2.7h2.1c2.5,0,3.7,0.9,3.7,2.7V313z"/>
	<path style="fill:#0090BA;" d="M337.9,276.7c7.5,0.2,12.7,2.7,15.5,7.7c0.2,0.4,0.4,0.7,0.4,1.1c0,0.7-0.4,1.2-1.2,1.8l-4.3,2
		c-0.5,0.2-1.1,0.4-1.4,0.4c-0.9,0-1.6-0.4-2-1.1c-1.4-2.1-3.7-3.2-7-3.2c-5.3,0-8,3.7-8.2,11c0.2,7.3,2.9,10.9,8.2,10.9
		c3.2,0,5.7-1.1,7-3.2c0.4-0.7,1.1-1.1,2-1.1c0.4,0,0.9,0.2,1.4,0.4l4.3,2c0.7,0.5,1.2,1.1,1.2,1.8c0,0.4-0.2,0.7-0.4,1.1
		c-2.9,5-8,7.5-15.5,7.7c-12.1-0.2-18.2-6.6-18.2-19.2C319.7,283.5,325.8,276.9,337.9,276.7z"/>
	<path style="fill:#0090BA;" d="M360.4,264.9c0.2-1.8,1.4-2.7,3.7-2.7h2.1c2.5,0,3.7,0.9,3.7,2.7v24.6l7.7-11c1.2-1.4,2.9-2,4.8-2
		h2.9c2,0,2.9,0.5,2.9,1.8c0,0.4-0.2,0.9-0.5,1.4l-8.9,12.8l12.3,20c0.4,0.5,0.5,0.9,0.5,1.4c0,1.2-0.9,1.8-2.9,1.8h-3.6
		c-2,0-3.6-0.7-4.8-2.1l-8-13.5l-2.5,3.6v9.4c-0.2,1.8-1.4,2.7-3.7,2.7h-2.1c-2.5,0-3.7-0.9-3.7-2.7v-48.1H360.4z"/>
</g>
<g>
	<path style="fill:#0090BA;" d="M395.1,264.9c0.2-1.8,1.4-2.7,3.7-2.7h2.1c2.5,0,3.7,0.9,3.7,2.7v38.5c0,2.3,0.9,3.4,2.9,3.4
		c1.1,0,1.8,0,2.1-0.2c0.2-0.2,0.4-0.2,0.7-0.2c2.1,0,3,1.2,3,3.6v0.2c-0.2,3-0.9,4.8-2.3,5c-1.1,0.2-2.3,0.4-3.6,0.4
		c-8.2,0-12.3-3.9-12.7-11.9v-38.7H395.1z"/>
	<path style="fill:#0090BA;" d="M451.4,283.5V313c-0.2,1.8-1.4,2.7-3.7,2.7h-2.1c-2.3,0-3.6-0.7-3.7-2v-2.9c-1.2,3.4-4.8,5-10.5,5.2
		c-9.6,0-14.3-6.6-14.3-19.6c1.1-12.7,7.5-19.1,18.7-19.6C443.8,276.9,449.1,279,451.4,283.5z M426.3,296.5c0,7.1,2.1,10.7,6.6,10.7
		s7.5-2.9,8.9-8.7v-11.6c-0.9-1.1-3-1.6-6.2-1.6C430,285.4,427,289.2,426.3,296.5z"/>
	<path style="fill:#0090BA;" d="M492.2,313c-0.2,1.8-1.4,2.7-3.7,2.7h-2.1c-2.5,0-3.7-0.9-3.7-2.7v-2c-1.1,3.2-3.9,4.8-8.7,4.8
		c-9.8,0-14.6-6.1-14.6-18.4v-18.2c0.2-1.8,1.4-2.7,3.7-2.7h2.1c2.5,0,3.7,0.9,3.7,2.7v18c0,6.8,1.8,10.2,5.3,10.2
		c4.1,0,7-2.7,8.4-7.8v-20.3c0.2-1.8,1.4-2.7,3.7-2.7h2.1c2.3,0,3.6,0.9,3.7,2.7L492.2,313L492.2,313z"/>
</g>
<g>
	<path style="fill:#0090BA;" d="M524.1,303.6c-0.2,7.7-4.5,11.8-12.7,12.1c-4.8,0-8.6-1.2-11.2-3.9c-0.9-0.9-1.4-1.6-1.4-2.5
		c0-1.2,0.9-2.1,2.5-2.9c2-0.9,3.2-1.2,4.1-1.2c1.1,0,1.8,0.4,2.5,0.9c0.7,1.1,2,1.6,3.6,1.6c2-0.2,2.9-1.4,2.9-3.6
		s-2.5-4.3-7.5-6.8c-5-2.3-7.5-5.7-7.5-10c0.2-6.4,3.7-10,10.9-10.7c5.2,0,8.9,1.4,11.4,4.5c0.5,0.5,0.7,1.2,0.7,1.8
		c0,1.1-0.7,2.1-2,3c-1.6,0.9-2.9,1.2-3.7,1.2c-0.9,0-1.6-0.4-2.1-0.9c-0.7-1.1-1.8-1.6-3-1.6c-1.2,0.2-2,0.7-2.1,2.1
		c0,1.4,2.5,3.4,7.3,5.7C521.5,294.9,524,298.6,524.1,303.6z"/>
</g>
<g>
	<path style="fill:#0090BA;" d="M250,351.7c0.2-16.8,7.3-25,21.4-25c8.2,0,13.7,2.9,16.9,8.7c0,0.2,0.2,0.5,0.2,0.7
		c0,1.1-0.9,2.1-2.7,3c-1.2,0.7-2.3,1.1-3.4,1.1c-0.7,0-1.2-0.2-2-0.7c-2-3-4.6-4.6-8.4-4.6c-7.8,0-11.8,5.5-11.9,16.8
		c0.2,11.2,4.1,16.8,11.9,16.8c3.7,0,6.6-1.6,8.4-4.6c0.5-0.4,1.2-0.7,2-0.7c0.9,0,2.1,0.4,3.4,1.1c1.8,1.1,2.7,2,2.7,3
		c0,0.2,0,0.4-0.2,0.7c-3.2,5.9-8.9,8.7-16.9,8.7C257.3,376.8,250.2,368.5,250,351.7z"/>
	<path style="fill:#0090BA;" d="M306.5,374.2c-0.2,1.8-1.4,2.7-3.7,2.7h-2.1c-2.5,0-3.7-0.9-3.7-2.7V326c0.2-1.8,1.4-2.7,3.7-2.7
		h2.1c2.5,0,3.7,0.9,3.7,2.7v16.4c1.2-2.5,4.5-3.9,9.3-4.5c10,0,15.1,5.9,15.3,17.5l0,0v18.9c-0.2,1.8-1.4,2.7-3.7,2.7h-2.1
		c-2.3,0-3.6-0.9-3.7-2.7v-18c0-6.2-2.1-9.4-6.2-9.4c-4.5,0-7.5,2.9-8.9,8.4v18.9H306.5z"/>
	<path style="fill:#0090BA;" d="M349.5,327.5v3.4c0,1.8-1.2,2.7-3.7,2.7h-2.3c-2.5,0-3.7-0.9-3.7-2.7v-3.4c0-1.8,1.2-2.9,3.7-2.9
		h2.3C348.2,324.6,349.5,325.5,349.5,327.5z M349.5,374.2c-0.2,1.8-1.4,2.7-3.7,2.7h-2.1c-2.5,0-3.7-0.9-3.7-2.7v-33.7
		c0.2-1.8,1.4-2.7,3.7-2.7h2.1c2.5,0,3.7,0.9,3.7,2.7V374.2z"/>
	<path style="fill:#0090BA;" d="M358.4,326c0.2-1.8,1.4-2.7,3.7-2.7h2.1c2.5,0,3.7,0.9,3.7,2.7v38.5c0,2.3,0.9,3.4,2.9,3.4
		c1.1,0,1.8,0,2.1-0.2c0.2-0.2,0.4-0.2,0.7-0.2c2.1,0,3,1.2,3,3.6v0.2c-0.2,3-0.9,4.8-2.3,5c-1.1,0.2-2.3,0.4-3.6,0.4
		c-8.2,0-12.3-3.9-12.7-11.9V326H358.4z"/>
	<path style="fill:#0090BA;" d="M414.4,374.2c-0.2,1.8-1.4,2.7-3.7,2.7h-2.1c-2.3,0-3.6-0.9-3.7-2.7v-1.4c-1.1,2.5-4.1,3.9-9.1,4.5
		c-10.5,0-15.7-6.6-15.7-19.6c1.1-12.7,7.1-19.1,17.6-19.6c2.9,0,5.2,0.5,7,1.8V326c0.2-1.8,1.4-2.7,3.7-2.7h2.1
		c2.5,0,3.7,0.9,3.7,2.7v48.1H414.4z M389.2,357.4c0,0.4,0,0.7,0,1.1c0,6.4,2.1,9.6,6.2,9.6c4.8,0,7.8-2.9,9.3-8.7v-11.6
		c-0.9-1.1-3-1.6-6.2-1.6C393,346.5,389.8,350.3,389.2,357.4z"/>
	<path style="fill:#0090BA;" d="M440,347.1c-4.1,0.2-6.2,2.7-6.2,7.3V374c-0.2,1.8-1.4,2.7-3.7,2.7h-2.3c-2.3,0-3.6-0.9-3.9-2.7
		v-33.5c0.2-1.8,1.4-2.7,3.7-2.7h2.3c2.5,0,3.7,0.9,3.7,2.9v3.7c1.6-4.3,4.5-6.6,8.9-6.8c2.1,0,3.2,0.7,3.2,2.1c0,0.4,0,0.7-0.2,1.1
		l-1.6,3.6C443.2,346.2,442,346.9,440,347.1z"/>
	<path style="fill:#0090BA;" d="M458,361.2c0.7,5,3.6,7.5,8.4,7.5c3.2,0,5.5-1.2,7-3.6c0.4-0.7,1.1-1.1,2-1.1c0.4,0,0.9,0.2,1.4,0.4
		l4.3,2c0.7,0.5,1.2,1.1,1.2,1.8c0,0.4-0.2,0.7-0.4,1.1c-2.9,5-8,7.5-15.5,7.7c-12.1-0.2-18.2-6.8-18.2-19.6
		c0.7-12.5,7-18.9,18.5-19.1c8.4,0.2,13,3.6,13.9,10.5c-0.2,8.2-6.2,12.5-17.8,13C460.7,361.3,459.1,361.2,458,361.2z M471.9,348.7
		c-0.4-2.1-2.1-3.2-5.5-3.2c-4.8,0.4-7.7,2.9-8.6,7.5c1.4,0.4,3.2,0.5,5.3,0.5c1.4,0,2.9-0.2,4.3-0.5
		C470.3,352.2,471.9,350.8,471.9,348.7L471.9,348.7z"/>
	<path style="fill:#0090BA;" d="M497.2,374.2c-0.2,1.8-1.4,2.7-3.7,2.7h-2.1c-2.5,0-3.7-0.9-3.7-2.7v-33.7c0.2-1.8,1.2-2.7,3.4-2.7
		h2.9c2.1,0,3.4,0.9,3.4,2.7v3.7c1.2-4.1,4.5-6.2,9.3-6.8c10,0,15.1,5.9,15.3,17.8l0,0v18.9c-0.2,1.8-1.4,2.7-3.7,2.7h-2.1
		c-2.3,0-3.6-0.9-3.7-2.7v-17.8c0-6.2-2.1-9.4-6.2-9.4c-4.5,0-7.5,2.9-8.9,8.4v18.9H497.2z"/>
	<path style="fill:#0090BA;" d="M536.1,326.8c2.5,0.7,3.7,2.7,3.7,5.7v0.5c0,3.7-2,7.3-5.7,10.9c-0.5,0.4-1.1,0.5-1.6,0.5
		c-0.4,0-1.1-0.2-2-0.5c-0.7-0.4-1.1-0.9-1.1-1.4c0-0.4,0.2-0.7,0.4-1.2c1.6-2.1,2.7-3.9,2.9-5.3h-0.4c-2,0-3-0.9-3-2.7v-3.4
		c0-1.8,1.1-2.9,3-2.9h3.7V326.8z"/>
	<path style="fill:#0090BA;" d="M565.1,364.7c-0.2,7.7-4.5,11.8-12.7,12.1c-4.8,0-8.6-1.2-11.2-3.9c-0.9-0.9-1.4-1.6-1.4-2.5
		c0-1.2,0.9-2.1,2.5-2.9c2-0.9,3.2-1.2,4.1-1.2c1.1,0,1.8,0.4,2.5,0.9c0.7,1.1,2,1.6,3.6,1.6c2-0.2,2.9-1.4,2.9-3.6
		s-2.5-4.3-7.5-6.8c-5-2.3-7.5-5.7-7.5-10c0.2-6.4,3.7-10,10.9-10.7c5.2,0,8.9,1.4,11.4,4.5c0.5,0.5,0.7,1.2,0.7,1.8
		c0,1.1-0.7,2.1-2,3c-1.6,0.9-2.9,1.2-3.7,1.2c-0.9,0-1.6-0.4-2.1-0.9c-0.7-1.1-1.8-1.6-3-1.6c-1.2,0.2-2,0.7-2.1,2.1
		c0,1.4,2.5,3.4,7.3,5.7C562.6,356,565.1,359.7,565.1,364.7z"/>
</g>
<g>
	<path style="fill:#0090BA;" d="M262.2,415.9v19.4c-0.2,1.8-1.4,2.7-3.7,2.7h-2.1c-2.5,0-3.7-0.9-3.7-2.7v-44.9
		c0.2-1.8,1.4-2.7,3.7-2.7h2.1c2.5,0,3.7,0.9,3.7,2.7v18.5H280v-18.5c0.2-1.8,1.4-2.7,3.7-2.7h2.1c2.5,0,3.7,0.9,3.7,2.7v44.9
		c-0.2,1.8-1.4,2.7-3.7,2.7h-2.1c-2.5,0-3.7-0.9-3.7-2.7v-19.4H262.2z"/>
	<path style="fill:#0090BA;" d="M295.3,418.2c0.2-12.8,6.1-19.2,17.8-19.4c11.8,0.2,17.8,6.6,17.8,19.4
		c-0.2,12.8-6.1,19.2-17.8,19.4C301.4,437.4,295.5,431,295.3,418.2z M321.1,418.2c-0.2-7.5-2.9-11.4-7.8-11.4
		c-5.2,0-7.7,3.7-7.8,11.4c0.2,7.5,2.9,11.4,7.8,11.4C318.3,429.6,321,425.9,321.1,418.2z"/>
	<path style="fill:#0090BA;" d="M359.8,425.9c-0.2,7.7-4.5,11.8-12.7,12.1c-4.8,0-8.6-1.2-11.2-3.9c-0.9-0.9-1.4-1.6-1.4-2.5
		c0-1.2,0.9-2.1,2.5-2.9c2-0.9,3.2-1.2,4.1-1.2c1.1,0,1.8,0.4,2.5,0.9c0.7,1.1,2,1.6,3.6,1.6c2-0.2,2.9-1.4,2.9-3.6
		s-2.5-4.3-7.5-6.8c-5-2.3-7.5-5.7-7.5-10c0.2-6.4,3.7-10,10.9-10.7c5.2,0,8.9,1.4,11.4,4.5c0.5,0.5,0.7,1.2,0.7,1.8
		c0,1.1-0.7,2.1-2,3c-1.6,0.9-2.9,1.2-3.7,1.2s-1.6-0.4-2.1-0.9c-0.7-1.1-1.8-1.6-3-1.6c-1.2,0.2-2,0.7-2.1,2.1
		c0,1.4,2.5,3.4,7.3,5.7C357.3,417.1,359.8,420.9,359.8,425.9z"/>
	<path style="fill:#0090BA;" d="M365.5,401.6L365.5,401.6c0.2-1.6,1.4-2.5,3.7-2.5h2.1c2.5,0,3.7,0.9,3.7,2.7v2.9
		c1.1-3.2,4.1-5,8.9-5.3c10.5,0,15.7,6.4,15.7,19.2c-1.1,12.7-7.3,19.1-18.7,19.6c-2.9,0-4.8-0.2-5.9-0.4v12.1
		c-0.2,1.8-1.4,2.5-3.7,2.5h-2.1c-2.3,0-3.6-0.9-3.7-2.5V401.6L365.5,401.6z M375.3,416.2v11.6c0.9,1.1,3,1.6,6.1,1.6
		c5.5-0.2,8.6-3.9,9.3-11.2c0-7-2.1-10.3-6.6-10.3C379.6,408,376.8,410.7,375.3,416.2z"/>
</g>
<g>
	<path style="fill:#0090BA;" d="M417.6,388.6v3.4c0,1.8-1.2,2.7-3.7,2.7h-2.3c-2.5,0-3.7-0.9-3.7-2.7v-3.4c0-1.8,1.2-2.9,3.7-2.9
		h2.3C416.3,385.8,417.6,386.6,417.6,388.6z M417.6,435.3c-0.2,1.8-1.4,2.7-3.7,2.7h-2.1c-2.5,0-3.7-0.9-3.7-2.7v-33.7
		c0.2-1.8,1.4-2.7,3.7-2.7h2.1c2.5,0,3.7,0.9,3.7,2.7V435.3z"/>
	<path style="fill:#0090BA;" d="M428.3,405.9h-3.4c-1.4,0-2.1-0.9-2.1-2.7v-1.4c0-1.6,0.7-2.5,2.1-2.7h3.4v-5.5
		c0.2-1.8,1.4-2.7,3.7-2.7h2.1c2.5,0,3.7,0.9,3.7,2.7v5.5h5c1.4,0.2,2.1,1.1,2.1,2.7v1.4c0,1.6-0.7,2.5-2.1,2.7h-5v19.6
		c0,2.3,0.9,3.4,2.9,3.4c1.1,0,1.8,0,2.1-0.2c0.2,0,0.4-0.2,0.7-0.2c2,0,3,1.2,3,3.6v0.2c0,3-0.9,4.8-2.3,5
		c-1.1,0.2-2.3,0.4-3.6,0.4c-8.2,0-12.3-3.9-12.7-11.9v-19.8H428.3z"/>
	<path style="fill:#0090BA;" d="M484.9,405.5v29.8c-0.2,1.8-1.4,2.7-3.7,2.7H479c-2.3,0-3.6-0.7-3.7-2v-2.9c-1.2,3.4-4.8,5-10.5,5.2
		c-9.6,0-14.3-6.6-14.3-19.6c1.1-12.7,7.5-19.1,18.7-19.6C477.3,398.9,482.4,401.3,484.9,405.5z M459.8,418.5
		c0,7.1,2.1,10.7,6.6,10.7s7.5-2.9,8.9-8.7v-11.6c-0.9-1.1-3-1.6-6.2-1.6C463.5,407.7,460.3,411.4,459.8,418.5z"/>
</g>
<g>
	<path style="fill:#0090BA;" d="M492.2,387.2c0.2-1.8,1.4-2.7,3.7-2.7h2.1c2.5,0,3.7,0.9,3.7,2.7v38.5c0,2.3,0.9,3.4,2.9,3.4
		c1.1,0,1.8,0,2.1-0.2c0.2,0,0.4-0.2,0.7-0.2c2.1,0,3,1.2,3,3.6v0.2c-0.2,3-0.9,4.8-2.3,5c-1.1,0.2-2.3,0.4-3.6,0.4
		c-8.2,0-12.3-3.9-12.7-11.9v-38.7H492.2z"/>
</g>
<g>
	<path d="M23.5,489.8c0-0.9,0.2-1.8,0.2-3.2c0-1.1-0.2-1.1-1.4-1.2v-0.7c1.1,0.2,2.1,0.2,3.4,0.2s2.3-0.2,3.6-0.2l5.7,14.6l5.2-14.6
		c1.1,0.2,2.3,0.2,3.4,0.2s2.3-0.2,3.4-0.2v0.7c-1.1,0.2-1.2,0.5-1.2,1.4c0,0.9,0.2,2.3,0.2,3.6l1.1,14.1c0,0.9,1.1,1.1,1.6,1.1v0.7
		c-1.4-0.2-2.9-0.2-4.3-0.2c-1.4,0-2.9,0.2-4.3,0.2v-0.7c1.6-0.2,2-0.5,2-2c0-0.7-0.2-2.3-0.2-3.4l-0.7-9.8l0,0l-5.5,15.9h-2.9
		l-6.2-16l0,0l-0.2,9.6c0,1.8-0.2,2.7-0.2,3.6c0,1.6,0.2,2,2.1,2.3v0.7c-1.2-0.2-2.5-0.2-3.7-0.2s-2.5,0.2-3.4,0.2v-0.7
		c1.2-0.2,1.8-0.4,2-1.8L23.5,489.8z"/>
	<path d="M50.4,486.8c0-0.9-0.4-1.4-1.6-1.4v-0.7c1.4,0.2,2.7,0.2,3.9,0.2c1.2,0,2.5-0.2,3.9-0.2v0.7c-1.1,0-1.6,0.5-1.6,1.4v17.3
		c0,0.9,0.4,1.4,1.6,1.4v0.7c-1.4-0.2-2.7-0.2-3.9-0.2c-1.2,0-2.5,0.2-3.9,0.2v-0.7c1.1,0,1.6-0.5,1.6-1.4V486.8z"/>
	<path d="M55.8,505.3c0.9-0.2,1.4-0.7,1.8-1.6l6.4-16.4c0.2-0.5,0.4-0.9,0.4-1.2c0-0.4-0.4-0.9-1.2-0.9v-0.7c1.1,0.2,2.1,0.2,3,0.2
		c1.1,0,2.1-0.2,3-0.2l6.1,18.5c0.5,1.4,1.1,2,2,2.1v0.7c-1.4-0.2-2.9-0.2-4.1-0.2c-1.4,0-2.9,0.2-4.3,0.2v-0.7
		c1.2-0.2,1.6-0.5,1.6-1.2c0-0.5-0.2-1.2-0.4-1.6l-1.1-3.2h-6.4l-1.4,3.9c-0.2,0.5-0.2,0.9-0.2,1.1c0,0.5,0.5,1.1,1.6,1.1v0.7
		c-1.1-0.2-2.3-0.2-3.4-0.2c-1.1,0-2.3,0.2-3.4,0.2L55.8,505.3L55.8,505.3z M68.4,496.8c-0.7-2.1-1.2-4.3-2-7.7l0,0
		c-0.7,2.7-1.8,5.2-2.7,7.7H68.4z"/>
</g>
<g>
	<path d="M78.2,489.8c0-0.9,0.2-1.8,0.2-3.2c0-1.1-0.2-1.1-1.4-1.2v-0.7c1.1,0.2,2.1,0.2,3.4,0.2s2.3-0.2,3.6-0.2l5.7,14.6l5.2-14.6
		c1.1,0.2,2.3,0.2,3.4,0.2c1.1,0,2.3-0.2,3.4-0.2v0.7c-1.1,0.2-1.2,0.5-1.2,1.4c0,0.9,0.2,2.3,0.2,3.6l1.1,14.1
		c0,0.9,1.1,1.1,1.6,1.1v0.7c-1.4-0.2-2.9-0.2-4.3-0.2s-2.9,0.2-4.3,0.2v-0.7c1.6-0.2,2-0.5,2-2c0-0.7-0.2-2.3-0.2-3.4l-0.7-9.8l0,0
		l-5.5,15.9h-2.9l-6.2-16l0,0l-0.2,9.6c0,1.8-0.2,2.7-0.2,3.6c0,1.6,0.2,2,2.1,2.3v0.7c-1.2-0.2-2.5-0.2-3.7-0.2s-2.5,0.2-3.4,0.2
		v-0.7c1.2-0.2,1.8-0.4,2-1.8L78.2,489.8z"/>
	<path d="M105,486.8c0-0.9-0.4-1.4-1.6-1.4v-0.7c1.4,0.2,2.7,0.2,3.9,0.2s2.5-0.2,3.9-0.2v0.7c-1.1,0-1.6,0.5-1.6,1.4v17.3
		c0,0.9,0.4,1.4,1.6,1.4v0.7c-1.4-0.2-2.7-0.2-3.9-0.2s-2.5,0.2-3.9,0.2v-0.7c1.1,0,1.6-0.5,1.6-1.4V486.8z"/>
</g>
<g>
	<path d="M137.2,504.4c-2,1.6-5,2.1-7,2.1c-7.1,0-11-5.5-11-11c0-5.7,4.1-11.2,11.8-11.2c2.7,0,4.6,0.5,5.5,0.9c0,2.3,0,4.5,0.2,6.6
		H136c-0.5-2.7-2.7-4.1-5.3-4.1c-3.7,0-6.6,2.9-6.6,7.8c0,3.7,3,8,7.5,8c1.8,0,4.5-0.9,6.2-2.3L137.2,504.4z"/>
	<path d="M139.4,486.8c0-0.9-0.4-1.4-1.6-1.4v-0.7c1.4,0.2,2.7,0.2,3.9,0.2c1.2,0,2.5-0.2,3.9-0.2v0.7c-1.1,0-1.6,0.5-1.6,1.4v6.6h8
		v-6.6c0-0.9-0.4-1.4-1.6-1.4v-0.7c1.4,0.2,2.7,0.2,3.9,0.2s2.5-0.2,3.9-0.2v0.7c-1.1,0-1.6,0.5-1.6,1.4v17.3c0,0.9,0.4,1.4,1.6,1.4
		v0.7c-1.4-0.2-2.7-0.2-3.9-0.2s-2.5,0.2-3.9,0.2v-0.7c1.1,0,1.6-0.5,1.6-1.4v-7.7h-8v7.7c0,0.9,0.4,1.4,1.6,1.4v0.7
		c-1.4-0.2-2.7-0.2-3.9-0.2c-1.2,0-2.5,0.2-3.9,0.2v-0.7c1.1,0,1.6-0.5,1.6-1.4V486.8z"/>
	<path d="M161.3,486.8c0-0.9-0.4-1.4-1.6-1.4v-0.7c1.4,0.2,2.7,0.2,3.9,0.2s2.5-0.2,3.9-0.2v0.7c-1.1,0-1.6,0.5-1.6,1.4v17.3
		c0,0.9,0.4,1.4,1.6,1.4v0.7c-1.4-0.2-2.7-0.2-3.9-0.2s-2.5,0.2-3.9,0.2v-0.7c1.1,0,1.6-0.5,1.6-1.4V486.8z"/>
	<path d="M170.4,486.8c0-0.9-0.4-1.4-1.6-1.4v-0.7c1.4,0.2,2.7,0.2,3.9,0.2c1.4,0,3.4-0.2,4.3-0.2v0.7c-1.6,0-2,0.9-2,1.8v15.7h6.2
		c2.1,0,3-1.1,3.6-3.6h0.7c-0.4,2.1-0.7,4.3-0.7,6.4h-16.2V505c1.1,0,1.6-0.5,1.6-1.4v-16.8H170.4z"/>
</g>
<g>
	<path d="M186.8,487c0-0.9-0.4-1.4-1.6-1.4v-0.7h10c5.5,0,11,2.9,11,10.2c0,6.6-5.5,10.7-11.6,10.7h-9.4V505c1.1,0,1.6-0.5,1.6-1.4
		L186.8,487L186.8,487z M191.6,502.8h2.5c4.3,0,7.3-3,7.3-6.8c0-4.6-2.3-8.2-7.8-8.2h-2V502.8z"/>
	<path d="M213.3,503.4c0,1.2,0.2,1.6,2.1,2v0.7c-2.1-0.2-3.4-0.2-4.6-0.2c-1.2,0-2.5,0.2-3.9,0.2v-0.7c1.2-0.2,1.6-0.7,1.6-2.3v-16
		c0-0.9-0.4-1.4-1.6-1.4v-0.7h11.8c3.7,0,6.8,1.8,6.8,5.5c0,2.5-1.1,4.8-5.5,6.1l5.3,7.5c0.7,0.9,1.2,1.4,2.1,1.2v0.7
		c-1.1-0.2-2.3-0.2-3.4-0.2s-2.3,0.2-3.4,0.2c-2-3.6-4.5-7.1-6.6-10.2l0,0c4.8-0.7,6.8-1.2,6.8-4.3c0-2.7-2-3.7-5-3.7h-2.1v15.7
		H213.3z"/>
	<path d="M228.5,487c0-0.9-0.4-1.4-1.6-1.4v-0.7h16.6c0,1.8,0.2,3.6,0.2,5.3h-0.7c-0.4-1.8-0.7-2.5-2.5-2.5h-7.1v5.7h4.5
		c1.4,0,1.8-0.5,2-1.6h0.7c-0.2,0.9-0.2,2.3-0.2,3.2c0,0.9,0.2,2.3,0.2,3.2h-0.7c-0.2-1.2-0.4-1.6-2-1.6h-4.5v6.4h7.5
		c1.8,0,2.3-0.5,2.9-3.4h0.9c-0.4,2.7-0.4,4.5-0.4,6.2h-17.3v-0.7c1.1,0,1.6-0.5,1.6-1.4L228.5,487L228.5,487z"/>
	<path d="M246.8,486.8c0-0.9-0.4-1.4-1.6-1.4v-0.7c1.4,0.2,2.7,0.2,3.9,0.2c0.9,0,2,0,2.9-0.2l9.1,14.1l0,0v-11.6
		c0-1.8-1.1-1.8-2-1.8v-0.7c1.1,0.2,2.1,0.2,3.2,0.2c1.1,0,2.1-0.2,3.2-0.2v0.7c-1.1,0-1.6,0.5-1.6,1.4V506h-3.6l-10.9-16.6l0,0
		v14.1c0,1.8,1.1,1.8,2,1.8v0.7c-1.1-0.2-2.1-0.2-3.2-0.2c-1.1,0-2.1,0.2-3.2,0.2v-0.7c1.1,0,1.6-0.5,1.6-1.4v-17.1H246.8z"/>
</g>
<g>
	<path d="M271.1,486.3c0,4.5-3.4,6.2-3.7,6.2c-0.2,0-0.4-0.2-0.4-0.2c0-0.4,0.9-1.8,0.9-4.3c0-0.7-0.2-2-0.4-3h3.6V486.3z"/>
	<path d="M273.2,498.6c0.7,3.6,3.2,5.3,6.8,5.3c2,0,4.8-0.5,4.8-3c0-2-2-2.5-3.6-3l-2.3-0.7c-3.4-1.1-6.8-2.3-6.8-6.2
		c0-5.2,5-6.6,9.8-6.6c2.1,0,4.3,0.4,6.1,1.1c0,2.3,0.2,4.5,0.2,6.1h-0.7c-0.7-3-3.4-4.5-6.2-4.5c-1.6,0-4.5,0.5-4.5,2.9
		c0,1.8,1.6,2.3,2.9,2.7l3.4,1.1c3.4,0.9,6.4,2.1,6.4,6.4s-4.5,6.6-9.8,6.6c-2.3,0-5-0.4-7.1-1.2c0-2.7-0.2-4.8-0.2-6.8L273.2,498.6
		L273.2,498.6z"/>
</g>
<g>
	<path d="M299.2,486.8c0-0.9-0.4-1.4-1.6-1.4v-0.7c1.4,0.2,2.7,0.2,3.9,0.2s2.5-0.2,3.9-0.2v0.7c-1.1,0-1.6,0.5-1.6,1.4v6.6h8v-6.6
		c0-0.9-0.4-1.4-1.6-1.4v-0.7c1.4,0.2,2.7,0.2,3.9,0.2c1.2,0,2.5-0.2,3.9-0.2v0.7c-1.1,0-1.6,0.5-1.6,1.4v17.3
		c0,0.9,0.4,1.4,1.6,1.4v0.7c-1.4-0.2-2.7-0.2-3.9-0.2c-1.2,0-2.5,0.2-3.9,0.2v-0.7c1.1,0,1.6-0.5,1.6-1.4v-7.7h-8v7.7
		c0,0.9,0.4,1.4,1.6,1.4v0.7c-1.4-0.2-2.7-0.2-3.9-0.2s-2.5,0.2-3.9,0.2v-0.7c1.1,0,1.6-0.5,1.6-1.4V486.8z"/>
	<path d="M321.1,487c0-0.9-0.4-1.4-1.6-1.4v-0.7h16.6c0,1.8,0.2,3.6,0.2,5.3h-0.7c-0.4-1.8-0.7-2.5-2.5-2.5H326v5.7h4.5
		c1.4,0,1.8-0.5,2-1.6h0.7c-0.2,0.9-0.2,2.3-0.2,3.2c0,0.9,0.2,2.3,0.2,3.2h-0.7c-0.2-1.2-0.4-1.6-2-1.6H326v6.4h7.5
		c1.8,0,2.3-0.5,2.9-3.4h0.9c-0.4,2.7-0.4,4.5-0.4,6.2h-17.3v-0.7c1.1,0,1.6-0.5,1.6-1.4L321.1,487L321.1,487z"/>
	<path d="M335.6,505.3c0.9-0.2,1.4-0.7,1.8-1.6l6.4-16.4c0.2-0.5,0.4-0.9,0.4-1.2c0-0.4-0.4-0.9-1.2-0.9v-0.7c1.1,0.2,2.1,0.2,3,0.2
		c1.1,0,2.1-0.2,3-0.2L355,503c0.5,1.4,1.1,2,2,2.1v0.7c-1.4-0.2-2.9-0.2-4.1-0.2c-1.4,0-2.9,0.2-4.3,0.2v-0.7
		c1.2-0.2,1.6-0.5,1.6-1.2c0-0.5-0.2-1.2-0.4-1.6l-1.1-3.2h-6.4l-1.4,3.9c-0.2,0.5-0.2,0.9-0.2,1.1c0,0.5,0.5,1.1,1.6,1.1v0.7
		c-1.1-0.2-2.3-0.2-3.4-0.2s-2.3,0.2-3.4,0.2L335.6,505.3L335.6,505.3z M348.1,496.8c-0.7-2.1-1.2-4.3-2-7.7l0,0
		c-0.7,2.7-1.8,5.2-2.7,7.7H348.1z"/>
	<path d="M357.5,486.8c0-0.9-0.4-1.4-1.6-1.4v-0.7c1.4,0.2,2.7,0.2,3.9,0.2c1.4,0,3.4-0.2,4.3-0.2v0.7c-1.6,0-2,0.9-2,1.8v15.7h6.2
		c2.1,0,3-1.1,3.6-3.6h0.7c-0.4,2.1-0.7,4.3-0.7,6.4h-16.2V505c1.1,0,1.6-0.5,1.6-1.4v-16.8H357.5z"/>
	<path d="M381,503.4c0,1.6,1.1,2,2.1,2v0.7c-1.6-0.2-3.2-0.2-4.6-0.2s-3,0.2-4.6,0.2v-0.7c1.1,0,2.1-0.4,2.1-2v-15.5h-3.2
		c-1.8,0-2.5,1.2-2.9,3.6h-0.7c0-1.4,0.2-2.9,0.2-4.1V485h17.8v2.3c0,1.4,0.2,2.9,0.2,4.1h-0.7c-0.4-2.3-1.1-3.6-2.9-3.6h-3.2v15.5
		H381z"/>
	<path d="M389.6,486.8c0-0.9-0.4-1.4-1.6-1.4v-0.7c1.4,0.2,2.7,0.2,3.9,0.2c1.2,0,2.5-0.2,3.9-0.2v0.7c-1.1,0-1.6,0.5-1.6,1.4v6.6h8
		v-6.6c0-0.9-0.4-1.4-1.6-1.4v-0.7c1.4,0.2,2.7,0.2,3.9,0.2c1.2,0,2.5-0.2,3.9-0.2v0.7c-1.1,0-1.6,0.5-1.6,1.4v17.3
		c0,0.9,0.4,1.4,1.6,1.4v0.7c-1.4-0.2-2.7-0.2-3.9-0.2c-1.2,0-2.5,0.2-3.9,0.2v-0.7c1.1,0,1.6-0.5,1.6-1.4v-7.7h-8v7.7
		c0,0.9,0.4,1.4,1.6,1.4v0.7c-1.4-0.2-2.7-0.2-3.9-0.2c-1.2,0-2.5,0.2-3.9,0.2v-0.7c1.1,0,1.6-0.5,1.6-1.4V486.8z"/>
	<path d="M418.1,498.6c0.7,3.6,3.2,5.3,6.8,5.3c2,0,4.8-0.5,4.8-3c0-2-2-2.5-3.6-3l-2.3-0.7c-3.4-1.1-6.8-2.3-6.8-6.2
		c0-5.2,5-6.6,9.8-6.6c2.1,0,4.3,0.4,6.1,1.1c0,2.3,0.2,4.5,0.2,6.1h-0.7c-0.7-3-3.4-4.5-6.2-4.5c-1.6,0-4.5,0.5-4.5,2.9
		c0,1.8,1.6,2.3,2.9,2.7l3.4,1.1c3.4,0.9,6.4,2.1,6.4,6.4s-4.5,6.6-9.8,6.6c-2.3,0-5-0.4-7.1-1.2c0-2.7-0.2-4.8-0.2-6.8L418.1,498.6
		L418.1,498.6z"/>
	<path d="M433.4,484.7c1.4,0.2,2.9,0.2,4.3,0.2c1.4,0,2.9-0.2,4.3-0.2v0.7c-0.7,0-1.2,0.2-1.2,0.9c0,0.2,0.2,0.5,0.5,1.4l3,7.1l0,0
		l2.9-6.4c0.4-0.9,0.5-1.4,0.5-1.8c0-0.7-0.5-1.1-1.4-1.1v-0.7c1.1,0.2,2.3,0.2,3.4,0.2c1.1,0,2.3-0.2,3.4-0.2v0.7
		c-0.7,0-1.2,0.2-1.6,0.9l-5.7,12.3v5.3c0,0.9,0.5,1.4,1.6,1.4v0.7c-1.6-0.2-2.9-0.2-4.1-0.2c-1.2,0-2.5,0.2-4.1,0.2v-0.7
		c1.1,0,1.6-0.5,1.6-1.4v-5.5l-5.7-12.1c-0.5-0.9-0.9-1.1-1.8-1.1v-0.7H433.4z"/>
	<path d="M452.7,498.6c0.7,3.6,3.2,5.3,6.8,5.3c2,0,4.8-0.5,4.8-3c0-2-2-2.5-3.6-3l-2.3-0.7c-3.4-1.1-6.8-2.3-6.8-6.2
		c0-5.2,5-6.6,9.8-6.6c2.1,0,4.3,0.4,6.1,1.1c0,2.3,0.2,4.5,0.2,6.1h-0.7c-0.7-3-3.4-4.5-6.2-4.5c-1.6,0-4.5,0.5-4.5,2.9
		c0,1.8,1.6,2.3,2.9,2.7l3.4,1.1c3.4,0.9,6.4,2.1,6.4,6.4s-4.5,6.6-9.8,6.6c-2.3,0-5-0.4-7.1-1.2c0-2.7-0.2-4.8-0.2-6.8L452.7,498.6
		L452.7,498.6z"/>
	<path d="M481,503.4c0,1.6,1.1,2,2.1,2v0.7c-1.6-0.2-3.2-0.2-4.6-0.2s-3,0.2-4.6,0.2v-0.7c1.1,0,2.1-0.4,2.1-2v-15.5h-3.2
		c-1.8,0-2.5,1.2-2.9,3.6h-0.7c0-1.4,0.2-2.9,0.2-4.1V485h17.8v2.3c0,1.4,0.2,2.9,0.2,4.1h-0.7c-0.4-2.3-1.1-3.6-2.9-3.6h-3.2v15.5
		H481z"/>
	<path d="M489.7,487c0-0.9-0.4-1.4-1.6-1.4v-0.7h16.6c0,1.8,0.2,3.6,0.2,5.3h-0.7c-0.4-1.8-0.7-2.5-2.5-2.5h-7.1v5.7h4.5
		c1.4,0,1.8-0.5,2-1.6h0.7c-0.2,0.9-0.2,2.3-0.2,3.2c0,0.9,0.2,2.3,0.2,3.2H501c-0.2-1.2-0.4-1.6-2-1.6h-4.5v6.4h7.5
		c1.8,0,2.3-0.5,2.9-3.4h0.9c-0.4,2.7-0.4,4.5-0.4,6.2h-17.1v-0.7c1.1,0,1.6-0.5,1.6-1.4V487H489.7z"/>
	<path d="M508.5,489.8c0-0.9,0.2-1.8,0.2-3.2c0-1.1-0.2-1.1-1.4-1.2v-0.7c1.1,0.2,2.1,0.2,3.4,0.2c1.2,0,2.3-0.2,3.6-0.2l5.7,14.6
		l5.2-14.6c1.1,0.2,2.3,0.2,3.4,0.2c1.1,0,2.3-0.2,3.4-0.2v0.7c-1.1,0.2-1.2,0.5-1.2,1.4c0,0.9,0.2,2.3,0.2,3.6l1.1,14.1
		c0,0.9,1.1,1.1,1.6,1.1v0.7c-1.4-0.2-2.9-0.2-4.3-0.2s-2.9,0.2-4.3,0.2v-0.7c1.6-0.2,2-0.5,2-2c0-0.7-0.2-2.3-0.2-3.4l-0.7-9.8l0,0
		l-5.5,15.9h-2.9l-6.2-16l0,0l-0.2,9.6c0,1.8-0.2,2.7-0.2,3.6c0,1.6,0.2,2,2.1,2.3v0.7c-1.2-0.2-2.5-0.2-3.7-0.2
		c-1.2,0-2.5,0.2-3.4,0.2v-0.7c1.2-0.2,1.8-0.4,2-1.8L508.5,489.8z"/>
</g>
<line style="fill:none;stroke:#808285;stroke-width:1.6;" x1="231.5" y1="270.6" x2="231.5" y2="455.4"/>
<g>
	<path style="fill:#DE396D;" d="M104.4,295.9C104.4,297.2,104.3,294.7,104.4,295.9c22.5-50.8,106-18.9,96.2,38
		c-7.5,43.8-79.8,67.9-95,109.6c-0.7,4.6,0,0.2-0.4,0.2C90.2,402,15.7,377.7,8.2,333.9C-1.8,277,82.9,245.1,104.4,295.9"/>
	<path style="fill:#FFC425;" d="M167.9,314.1c-0.7,0.2-1.8,0-2-0.7c-0.4-0.7,0.2-1.4,0.7-1.8c0.9-0.2,2,0.2,2.1,1.1
		C168.8,313.4,168.6,313.9,167.9,314.1 M186.8,312.9c-4.8-1.1-10.5,0.2-13.7-4.3c-3-3.7-7.8-2.9-11.9-3.6c-4.1-0.4-4.8-6.8-9.6-5.9
		c-2.1,0.5-3.2,2.7-4.5,4.3c-8.7,1.4-16.6-2.3-25.3-2.3c-7.1-0.5-11.4,5.9-18.5,5c-15.7-3-36.7-7.8-48.5,6.6
		c-6.6,7.1-5.5,18.2-4.8,27.4l4.8,25.8c0.5,4.8,0.9,9.1,0.9,14.1l0.4,0.5h27.8c0.4-9.4-8.4-14.4-8.4-14.4l-0.9-0.5l0.5-0.7
		c10.5-13.2,10.5-23.2,10.5-23.3h1.6v0.2c0,1.1-0.4,10.9-10.3,23.5c2.1,1.6,8.6,6.6,8.6,14.8c0,0.2,0,0.4,0,0.5h9.1l0.9-0.5
		c0.4-5.2-1.2-11.2-6.2-14.1c0.4-3,1.2-6.2,2.9-8.9l14.4-0.9l0,0c-0.4-1.1-0.5-2.3-0.4-3.2c0.2-1.2,3.2-8.2,3.9-9.6l1.4,0.7
		c-1.8,3.9-3.4,8.4-3.6,9.1c-0.2,0.7-0.2,2.1,0.2,3.2c0.5,1.8,3.6,14.6,5,22.1c0.4,0.7,0.4,1.6,1.2,1.8h19.6h5.2
		c0.2-3.7-0.2-6.4-0.9-7.7l0,0l0,0c-0.9-2.5-3.6-3.6-5.9-4.6l-0.9-0.4c-4.6-2.3-4.3-7-3.7-11l0.4-3h1.6l-0.4,3.2
		c-0.2,1.2-0.4,2.7-0.4,3.7c0,2.5,0.7,4.5,3.2,5.7l0.9,0.4c2.5,1.1,5.5,2.5,6.8,5.5l0,0v0.2c0,0,0,0,0-0.2c0.9,1.6,1.1,4.5,1.1,7.1
		c0,0.4,0,0.9,0,1.2c3,0,10.7,0,10.7,0l0.4-0.2c0.9-3.7-0.4-7.5-2.3-10.5c-2-3.6-5.9-4.8-8.4-7.8c-0.4-5.7-0.4-11.8,0-17.6
		c0.2-1.1,1.2-2,2.1-2.7c4.8-3.4,10.3-5,15.7-7.1c4.5-2.3,8.7-5.2,13.5-6.1c3.7-1.2,8.6,0,9.4-5l2.7-1.4c0.7-2.1,1.6-4.3,2.9-6.1
		C187.7,314.6,187.7,313.4,186.8,312.9"/>
	<path style="fill:none;stroke:#000000;stroke-width:1.4;stroke-linecap:round;stroke-linejoin:round;" d="M167.9,314.1
		c-0.7,0.2-1.8,0-2-0.7c-0.4-0.7,0.2-1.4,0.7-1.8c0.9-0.2,2,0.2,2.1,1.1C168.8,313.4,168.6,313.9,167.9,314.1z M186.8,312.9
		c-4.8-1.1-10.5,0.2-13.7-4.3c-3-3.7-7.8-2.9-11.9-3.6c-4.1-0.4-4.8-6.8-9.6-5.9c-2.1,0.5-3.2,2.7-4.5,4.3
		c-8.7,1.4-16.6-2.3-25.3-2.3c-7.1-0.5-11.4,5.9-18.5,5c-15.7-3-36.7-7.8-48.5,6.6c-6.6,7.1-5.5,18.2-4.8,27.4l4.8,25.8
		c0.5,4.8,0.9,9.1,0.9,14.1l0.4,0.5h27.8c0.4-9.4-8.4-14.4-8.4-14.4l-0.9-0.5l0.5-0.7c10.5-13.2,10.5-23.2,10.5-23.3h1.6v0.2
		c0,1.1-0.4,10.9-10.3,23.5c2.1,1.6,8.6,6.6,8.6,14.8c0,0.2,0,0.4,0,0.5h9.1l0.9-0.5c0.4-5.2-1.2-11.2-6.2-14.1
		c0.4-3,1.2-6.2,2.9-8.9l14.4-0.9l0,0c-0.4-1.1-0.5-2.3-0.4-3.2c0.2-1.2,3.2-8.2,3.9-9.6l1.4,0.7c-1.8,3.9-3.4,8.4-3.6,9.1
		c-0.2,0.7-0.2,2.1,0.2,3.2c0.5,1.8,3.6,14.6,5,22.1c0.4,0.7,0.4,1.6,1.2,1.8h19.6h5.2c0.2-3.7-0.2-6.4-0.9-7.7l0,0l0,0
		c-0.9-2.5-3.6-3.6-5.9-4.6l-0.9-0.4c-4.6-2.3-4.3-7-3.7-11l0.4-3h1.6l-0.4,3.2c-0.2,1.2-0.4,2.7-0.4,3.7c0,2.5,0.7,4.5,3.2,5.7
		l0.9,0.4c2.5,1.1,5.5,2.5,6.8,5.5l0,0v0.2c0,0,0,0,0-0.2c0.9,1.6,1.1,4.5,1.1,7.1c0,0.4,0,0.9,0,1.2c3,0,10.7,0,10.7,0l0.4-0.2
		c0.9-3.7-0.4-7.5-2.3-10.5c-2-3.6-5.9-4.8-8.4-7.8c-0.4-5.7-0.4-11.8,0-17.6c0.2-1.1,1.2-2,2.1-2.7c4.8-3.4,10.3-5,15.7-7.1
		c4.5-2.3,8.7-5.2,13.5-6.1c3.7-1.2,8.6,0,9.4-5l2.7-1.4c0.7-2.1,1.6-4.3,2.9-6.1C187.7,314.6,187.7,313.4,186.8,312.9z"/>
</g>
</svg>
